<?xml version="1.0" encoding="UTF-8" standalone="no"?>
<!-- Created with Inkscape (http://www.inkscape.org/) -->

<svg
   width="210mm"
   height="297mm"
   viewBox="0 0 210 297"
   version="1.1"
   id="svg1"
   xml:space="preserve"
   inkscape:version="1.3.2 (091e20e, 2023-11-25, custom)"
   sodipodi:docname="Logo Hotel Editable.svg"
   xmlns:inkscape="http://www.inkscape.org/namespaces/inkscape"
   xmlns:sodipodi="http://sodipodi.sourceforge.net/DTD/sodipodi-0.dtd"
   xmlns="http://www.w3.org/2000/svg"
   xmlns:svg="http://www.w3.org/2000/svg"><sodipodi:namedview
     id="namedview1"
     pagecolor="#ffffff"
     bordercolor="#000000"
     borderopacity="0.25"
     inkscape:showpageshadow="2"
     inkscape:pageopacity="0.0"
     inkscape:pagecheckerboard="0"
     inkscape:deskcolor="#d1d1d1"
     inkscape:document-units="mm"
     inkscape:zoom="0.3535534"
     inkscape:cx="698.62148"
     inkscape:cy="584.07019"
     inkscape:window-width="1440"
     inkscape:window-height="829"
     inkscape:window-x="-8"
     inkscape:window-y="-8"
     inkscape:window-maximized="1"
     inkscape:current-layer="svg1" /><defs
     id="defs1" /><g
     inkscape:label="Logo Group"
     id="g1"
     transform="matrix(1.6960336,0,0,1.6960336,-72.712633,-147.18129)"
     inkscape:export-filename="LOGO 1.svg"
     inkscape:export-xdpi="96"
     inkscape:export-ydpi="96"><path
       d="m 109.91185,170.83272 c -1.46785,-0.0877 -1.4261,-0.0569 -1.69374,-1.24161 -0.15493,-0.68563 -0.27089,-1.0519 -0.37433,-1.18228 -0.0356,-0.0448 -0.96768,0.3089 -1.1786,0.44711 -0.67191,0.44024 -1.74466,0.0241 -2.06841,-0.96946 -0.26984,-0.82813 -1.69743,-5.36324 -2.37898,-7.74588 -0.28588,-0.99934 -0.93952,-3.28742 -1.45257,-5.03045 -0.51306,-1.74301 -1.10714,-3.78034 -1.236993,-4.22935 -0.283845,-0.98151 -0.395621,-1.9267 -0.463921,-3.72535 -0.02823,-0.74371 -0.182672,-3.47052 -0.343163,-6.21286 -0.463845,-7.92542 -0.465339,-8.56576 -0.465339,-8.56576 l 0.590851,-0.0137 6.368615,6.01158 c 0,0 3.09584,2.46228 3.85481,4.37285 0.28542,0.71848 0.54445,1.13565 0.69962,1.12674 0.0959,-0.007 7.26882,-8.6254 8.99683,-10.81158 1.1055,-1.39862 1.40878,-1.6014 4.20476,-2.81147 0.69864,-0.30238 1.60107,-0.70621 2.0054,-0.89739 0.40429,-0.1912 0.7552,-0.34762 0.77978,-0.34762 0.0246,0 1.25181,-0.56522 2.72718,-1.25606 3.34484,-1.5662 3.37288,-1.57323 3.56159,-0.88978 0.11332,0.41037 -0.0411,18.54441 -0.16424,19.3014 -0.0493,0.30213 -1.05949,3.83888 -2.24514,7.85945 -1.18564,4.02056 -2.23151,7.56965 -2.32417,7.88684 -0.20078,0.68743 -0.45499,0.96515 -2.18802,2.39038 -0.62748,0.51605 -2.04163,1.72051 -3.14249,2.67658 -2.94348,2.5563 -3.61221,3.09883 -4.10425,3.32981 -0.24403,0.11453 -0.44368,0.2417 -0.44368,0.28259 0,0.27506 -4.5417,0.42316 -7.5214,0.24531 z m 7.38161,-3.08794 c 0.60549,-2.79392 0.80451,-2.71972 -2.14198,-0.79843 -0.90638,0.59102 -2.1745,1.39484 -2.81807,1.78627 -2.18723,1.33031 -2.26932,1.25344 1.34249,1.2575 3.13024,0.004 3.13024,0.004 3.61756,-2.24534 z m -7.04356,1.29163 c 0.39507,-0.2357 2.01132,-1.24999 3.59166,-2.25393 1.58034,-1.0039 3.11245,-1.9697 3.4047,-2.14619 0.62662,-0.37846 0.62898,-0.29677 -0.0455,-1.57251 -1.31587,-2.48865 -3.46337,-5.94795 -3.71499,-5.98421 -0.95696,-0.13792 -2.00039,1.3339 -5.19216,7.32385 -0.34004,0.63817 0.0622,3.36902 0.73261,4.97351 0.13872,0.33203 0.0595,0.35409 1.22369,-0.34052 z m 9.84542,-1.61514 c 2.72137,-2.21743 4.69234,-3.96104 4.59152,-4.06189 -0.048,-0.048 -5.73958,1.30563 -5.83558,1.38805 -0.0678,0.0583 -0.91095,3.99992 -0.91095,4.25819 0,0.18363 -0.15103,0.29468 2.15501,-1.58435 z m -13.38796,-0.0386 c 1.19986,-0.75376 1.20508,-0.80215 0.10258,-0.94894 -0.94341,-0.1256 -1.13159,-0.0449 -1.28122,0.54931 -0.26973,1.07113 -0.0234,1.15468 1.17861,0.39963 z m 0.0177,-2.3661 c 0.0861,-0.0861 -0.28989,-1.23132 -0.49506,-1.50786 -0.10531,-0.14196 -0.1165,-0.1414 -0.22968,0.0111 -0.0655,0.0885 -0.2448,0.20241 -0.39855,0.25353 -0.64484,0.21447 -0.5899,1.28632 0.069,1.34457 0.50757,0.0449 0.95062,0.002 1.05435,-0.10156 z m 15.87972,-2.08084 c 4.01853,-0.90664 3.61722,-0.77875 3.84165,-1.22421 0.10532,-0.20916 0.43545,-1.25499 0.73354,-2.32403 0.29811,-1.06906 0.90472,-3.14166 1.34804,-4.60581 0.9574,-3.16188 1.66623,-5.65527 1.66623,-5.86093 0,-0.20292 -0.3406,0.25596 -4.38166,5.9032 -1.92911,2.69587 -3.95788,5.51997 -4.50839,6.27581 -1.35477,1.86 -1.73839,2.47098 -1.55164,2.47098 0.0206,0 1.30415,-0.28575 2.85223,-0.63501 z m 0.0353,-5.17507 c 2.22348,-3.10258 4.60912,-6.40164 5.30138,-7.33126 1.84303,-2.47474 2.92887,-4.14964 2.92887,-4.51758 0,-0.45131 -3.45798,-6.80655 -3.69261,-6.78644 -2.44621,0.20973 -4.3901,0.46793 -4.48922,0.59633 -0.23241,0.30102 -1.64947,2.65836 -4.32432,7.19353 -1.52377,2.58353 -2.98408,5.05664 -3.24514,5.49583 -0.44101,0.7419 -0.47465,0.836 -0.47465,1.32781 0,0.33113 -0.0787,0.77575 -0.21018,1.18748 -0.3605,1.12883 -0.46633,0.85991 1.92092,4.88156 1.17329,1.97659 2.15779,3.59381 2.18779,3.59381 0.0299,0 1.8737,-2.53848 4.09716,-5.64107 z m -18.34507,4.96151 c 0.30503,-0.49355 -0.84184,-6.11208 -3.05268,-14.95513 -0.98456,-3.93796 -0.83505,-4.03902 -1.0826,-1.6465 -0.347155,3.3552 -0.302464,3.87044 0.57166,6.59065 0.20913,0.65073 0.57474,1.86769 0.81253,2.70431 1.41632,4.98338 2.40529,7.86623 2.75109,7.30667 z m 4.65393,-1.23361 c 2.92547,-4.9701 3.85276,-7.62912 3.00829,-8.62634 -0.49978,-0.59016 -0.71096,-1.09929 -0.76977,-1.85587 -0.0639,-0.82146 -0.14228,-0.93255 -1.10661,-1.56786 -0.63383,-0.41758 -0.63383,-0.41758 -0.69375,-0.17813 -0.0552,0.22095 -1.25563,13.01103 -1.24783,13.29625 0.004,0.19157 0.28705,-0.18018 0.80967,-1.06805 z m -3.18543,-0.57114 c 0.57757,-0.57757 1.34464,-5.65103 1.34523,-8.76387 5.4e-4,-2.71527 -0.0591,-2.60465 -2.40356,-6.83492 -0.64401,-1.16202 -1.44502,-2.6325 -1.78007,-3.26776 -0.89579,-1.69847 -0.63035,-1.67234 -1.32317,-0.98889 -0.94144,0.92869 -1.06254,1.35365 -0.72879,2.55797 0.22068,0.79632 2.91449,12.04966 3.37995,14.11959 0.72287,3.21474 0.89108,3.79721 1.51041,3.17788 z m 7.60498,-4.86119 c 0.0652,-0.0414 0.15098,-0.31243 0.19086,-0.6041 0.0399,-0.29102 0.12907,-0.64282 0.19842,-0.78178 0.15421,-0.30916 0.15429,-0.31122 0.007,-0.31122 -0.19005,0 -0.55684,0.49749 -0.55684,0.75529 0,0.12937 -0.095,0.37534 -0.21125,0.54659 -0.2995,0.4413 -0.076,0.67883 0.37202,0.39522 z m 0.23189,-3.07036 c 0.61971,-0.64833 1.66085,-2.28167 3.31246,-5.19667 0.42773,-0.75495 1.42457,-2.44039 2.21522,-3.74547 1.50103,-2.47766 2.23832,-3.78028 2.17532,-3.84328 -0.0204,-0.0203 -2.21616,0.80643 -4.87939,1.83748 -5.49498,2.12734 -5.15768,1.86383 -4.41255,3.44764 0.38408,0.81643 0.41055,0.98968 0.69053,4.5213 0.27944,3.52476 0.30277,3.60212 0.89841,2.979 z m -1.7458,-4.43681 c -5.8e-4,-0.0349 -0.0557,-0.26901 -0.12265,-0.52037 -0.0813,-0.30571 -0.0951,-0.50666 -0.0412,-0.60714 0.14087,-0.2632 0.0872,-0.68437 -0.15189,-1.19056 -0.28889,-0.61178 -0.32391,-0.61166 -0.39328,9.7e-4 -0.06,0.5313 -0.023,0.70482 0.21737,1.01818 0.11154,0.14537 0.15465,0.34757 0.15465,0.72541 0,0.28809 0.0255,0.54916 0.0563,0.58015 0.0766,0.0766 0.28195,0.0717 0.28072,-0.008 z m -1.09766,-0.39502 c 0,-0.0663 -0.12248,-0.41799 -0.2722,-0.78173 -0.19193,-0.46628 -0.27159,-0.79399 -0.2701,-1.11107 0.002,-0.44976 0.002,-0.44976 -0.18254,-0.0845 -0.21908,0.43319 -0.41827,1.26822 -0.34691,1.45424 0.11632,0.30313 1.07175,0.76942 1.07175,0.52307 z m -2.38775,-1.91905 c 1.84354,-1.06437 -0.60853,-4.50513 -0.60853,-4.50513 l -4.92045,-1.17784 c 0,0 0.18086,0.3903 0.59247,1.08834 0.13703,0.2324 0.43525,0.93603 0.85237,1.72621 1.88858,3.57772 2.78836,3.61654 4.08414,2.86842 z m 22.82736,-12.72875 c 0.0137,-4.05336 0.0217,-4.02541 -0.63902,-2.21838 -2.0762,5.67679 -2.48057,7.2292 -2.08481,8.00353 2.85629,5.58831 2.59925,5.46751 2.66045,1.2503 0.0284,-1.95217 0.057,-5.11812 0.0633,-7.03545 z m -18.24228,8.91954 c 0.44155,-0.17228 2.05782,-0.7929 3.59168,-1.37917 5.97907,-2.28534 5.80642,-2.16893 4.82954,-3.25542 -0.39326,-0.43743 -0.66435,-1.08791 -0.77319,-1.85526 -0.11238,-0.79239 -0.52048,-1.53459 -1.02761,-1.86893 -0.33811,-0.22295 -0.38852,-0.2067 -0.69882,0.22539 -0.15193,0.21157 -0.92267,1.15279 -1.71273,2.09161 -4.91878,5.84487 -5.49523,6.56987 -5.07511,6.38317 0.0349,-0.0155 0.42466,-0.16912 0.86624,-0.34139 z m -13.378586,-1.18024 c 0.082,-1.14706 0.0022,-2.65855 -0.408235,-4.1131 -0.256926,-0.91072 -0.254897,-0.77422 -0.146003,0.23423 0.04952,0.4587 0.196801,2.29458 0.24107,2.96855 0.182705,2.78204 0.254156,1.73562 0.313168,0.91032 z m 1.591006,-0.67863 c 0.61658,-0.6492 0.56172,-0.56299 0.4183,-0.99475 -0.19913,-0.59957 -2.220489,-4.60196 -2.220489,-4.60196 0,0 0.33363,1.68193 0.573736,3.33201 0.495123,3.40267 0.402613,3.13641 0.402613,3.13641 0,0 0.48671,-0.51466 0.82584,-0.87171 z m -1.462232,-6.44604 2.367942,4.98232 c 0,0 0.24196,0.73552 0.76127,0.75958 l 3.92952,0.89121 z m 26.122372,4.30433 c 0.70222,-0.10186 1.57867,-0.37057 1.57867,-0.48411 0,-0.0178 0.77851,-2.33987 1.73,-5.15986 0.95152,-2.82001 1.70614,-5.12729 1.67693,-5.12729 -0.0292,0 -2.06267,0.91938 -4.51886,2.04305 -4.82458,2.20722 -4.8238,2.20661 -4.37782,3.70419 0.0483,0.16238 0.10219,0.84666 0.11952,1.52063 0.034,1.31565 0.0836,1.61613 0.4795,2.90493 0.27775,0.90398 0.69029,0.97853 3.31206,0.59846 z"
       style="fill:#c29c5d;fill-opacity:1;stroke-width:0.588517"
       id="path1-9"
       inkscape:label="ONYX" /><path
       style="display:inline;fill:#eaeaea;fill-opacity:1"
       d="M 102.07338,171.30764 C 83.498,169.3679 72.415194,147.37201 81.196148,129.87333 c 7.841318,-15.62617 25.745072,-20.00927 38.432572,-9.40886 2.40508,2.00945 4.97707,4.93997 6.16479,7.02414 0.47308,0.83015 0.49151,0.77373 -0.38966,1.19248 -0.97934,0.46541 -0.94559,0.47952 -1.7503,-0.73205 -1.82358,-2.74558 -5.37247,-6.38947 -7.08578,-7.27546 -0.2843,-0.14702 -0.30101,-0.18493 0.32302,0.73309 2.48135,3.65037 4.33279,9.17354 3.23311,9.64492 -0.2158,0.0925 -0.53073,0.3437 -0.76119,0.60715 -0.48253,0.55161 -0.38645,0.6947 -0.90508,-1.34803 -2.20149,-8.67105 -5.95516,-12.35126 -13.14721,-12.88993 -11.163456,-0.83613 -16.519876,7.44375 -16.518184,25.53355 0.0016,17.26308 4.17938,24.75959 14.276014,25.61664 1.09229,0.0927 1.09731,0.0941 1.34615,0.37754 0.13738,0.15647 0.38641,0.32958 0.5534,0.38469 0.16699,0.0551 0.4371,0.19079 0.60025,0.3015 0.37316,0.25323 0.46633,0.25158 1.20263,-0.0213 0.33035,-0.12245 0.62148,-0.2018 0.64695,-0.17634 0.049,0.049 0.45897,1.60963 0.43003,1.63702 -0.14285,0.13523 -4.8815,0.3273 -5.77428,0.23405 z M 91.941353,165.2005 c -0.152072,-0.22119 -0.518866,-0.74473 -0.815099,-1.16342 -2.425929,-3.42877 -3.917213,-9.22382 -4.248832,-16.51075 -0.56856,-12.49341 1.090945,-21.39883 4.944978,-26.53627 0.684406,-0.91232 0.40873,-0.84636 -1.009688,0.24157 -11.744864,9.00835 -14.112628,26.33831 -5.221325,38.21552 1.738844,2.32279 4.46498,4.97708 6.067992,5.90807 0.571344,0.33182 0.604113,0.31384 0.281974,-0.15472 z"
       id="path1"
       sodipodi:nodetypes="csssssssssssssccsscsscssscsscs"
       inkscape:label="O" /><text
       xml:space="preserve"
       style="font-size:10.6229px;fill:#eaeaea;fill-opacity:1;stroke-width:0.248973"
       x="51.257301"
       y="186.31334"
       id="text1"
       transform="scale(1.0223485,0.97814004)"><tspan
         sodipodi:role="line"
         id="tspan1"
         style="font-style:normal;font-variant:normal;font-weight:normal;font-stretch:normal;font-size:10.6229px;font-family:'Novecento Normal';-inkscape-font-specification:'Novecento Normal, ';fill:#eaeaea;fill-opacity:1;stroke-width:0.248973"
         x="51.257301"
         y="186.31334">ONYX HOTEL &amp; VILLA</tspan></text></g></svg>
